# xmcd
#
# Track frame offsets:
#	150
#	18110
#	35276
#	57307
#	75955
#	94601
#	114380
#	132606
#	147301
#	164592
#	182878
#	203057
#	225022
#	245795
#	262720
#	282089
#	300862
#	318030
#
# Disc length: 4445 seconds
#
# Revision: 1
# Processed by: cddbd v1.5.2PL0 Copyright (c) Steve Scherf et al.
# Submitted via: audiograbber 1.83.01
#
DISCID=dc115b12
DTITLE=Jennifer Rush - The Power Of Love
DYEAR=1899
DGENRE=Terror
TTITLE0=My Heart Is Still Young
TTITLE1=If You´re Ever Gonna Lose My Love
TTITLE2=Keep All Te Fires Burning Bright
TTITLE3=I Come Undone
TTITLE4=Heart Over Mind 
TTITLE5=Stronghold
TTITLE6=Now That It´s Over
TTITLE7=Surrender
TTITLE8=Live Wire
TTITLE9=Love Get Ready
TTITLE10=Love Is The Language (Of The Heart)
TTITLE11=Ya que te tengo a ti
TTITLE12=Search The Sky
TTITLE13=Never Say Never
TTITLE14=I Never Asked For An Angel
TTITLE15=Credo (Spanische Version)
TTITLE16=Ave Maria (Survivors Of A Different Kind)
TTITLE17=Now Is the Hour
EXTD=
EXTT0=
EXTT1=
EXTT2=
EXTT3=
EXTT4=
EXTT5=
EXTT6=
EXTT7=
EXTT8=
EXTT9=
EXTT10=
EXTT11=
EXTT12=
EXTT13=
EXTT14=
EXTT15=
EXTT16=
EXTT17=
PLAYORDER=
